<?xml version="1.0" standalone="no"?>
<!DOCTYPE svg PUBLIC "-//W3C//DTD SVG 20010904//EN"
 "http://www.w3.org/TR/2001/REC-SVG-20010904/DTD/svg10.dtd">
<svg version="1.0" xmlns="http://www.w3.org/2000/svg"
 width="1121.000000pt" height="1121.000000pt" viewBox="0 0 1121.000000 1121.000000"
 preserveAspectRatio="xMidYMid meet">
<metadata>
Created by potrace 1.11, written by Peter Selinger 2001-2013
</metadata>
<g transform="translate(0.000000,1121.000000) scale(0.100000,-0.100000)"
fill="#000000" stroke="none">
<path d="M5338 11205 c-2 -1 -56 -6 -120 -9 -65 -4 -128 -9 -140 -11 -13 -2
-54 -6 -91 -10 -37 -3 -76 -8 -86 -10 -10 -2 -44 -6 -76 -9 -32 -4 -61 -8 -64
-10 -3 -2 -28 -6 -56 -9 -27 -3 -70 -10 -95 -16 -25 -5 -61 -12 -80 -16 -89
-14 -423 -94 -480 -115 -14 -5 -86 -27 -160 -50 -394 -123 -885 -349 -1230
-568 -118 -75 -225 -147 -228 -154 -2 -5 -8 -8 -13 -8 -8 0 -186 -126 -199
-140 -3 -3 -34 -28 -70 -55 -36 -28 -72 -57 -80 -65 -9 -8 -36 -31 -60 -50
-25 -19 -52 -41 -60 -50 -8 -8 -46 -42 -84 -75 -78 -67 -299 -285 -391 -387
-303 -331 -577 -714 -779 -1088 -31 -58 -61 -112 -66 -120 -6 -8 -15 -26 -20
-38 -6 -13 -32 -70 -59 -125 -27 -56 -63 -136 -81 -177 -17 -41 -40 -93 -50
-115 -23 -52 -105 -275 -142 -390 -74 -228 -173 -634 -193 -796 -3 -23 -7 -44
-9 -48 -2 -3 -7 -31 -10 -61 -4 -30 -8 -68 -11 -85 -6 -39 -12 -97 -24 -225
-31 -322 -29 -803 5 -1080 11 -93 14 -118 18 -163 3 -26 10 -73 15 -105 6 -31
13 -73 15 -92 18 -135 81 -414 137 -610 227 -792 614 -1504 1163 -2140 158
-184 469 -487 641 -626 33 -27 67 -55 75 -63 28 -27 275 -208 389 -286 114
-77 297 -189 425 -259 78 -43 383 -196 391 -196 2 0 29 -11 58 -25 186 -85
529 -206 747 -264 63 -17 131 -36 150 -41 19 -6 69 -17 110 -26 41 -9 102 -22
135 -29 33 -7 83 -16 110 -20 28 -5 52 -9 55 -10 3 -1 30 -5 60 -9 30 -5 63
-10 74 -12 10 -2 44 -6 75 -9 31 -4 63 -8 71 -10 8 -2 53 -7 100 -11 47 -3 96
-8 110 -10 119 -15 495 -20 715 -10 198 9 316 20 468 40 17 3 55 8 82 11 28 4
95 15 150 25 55 11 117 21 139 25 21 3 42 7 46 10 4 3 24 7 44 10 20 4 80 17
134 31 53 14 105 27 114 29 45 10 175 47 193 54 11 5 85 30 165 56 352 114
734 292 1095 508 83 50 345 221 380 249 6 5 66 52 135 104 271 209 561 477
755 699 33 37 67 75 76 84 24 25 179 217 247 308 55 73 243 348 291 428 109
179 276 497 345 660 21 50 44 104 51 120 88 204 240 669 271 829 2 11 15 72
28 135 42 194 62 310 71 396 2 17 8 66 14 110 29 230 35 331 35 665 1 262 -4
392 -18 535 -12 118 -20 191 -21 195 -1 3 -5 30 -9 60 -4 30 -13 91 -21 135
-8 44 -16 94 -19 110 -7 48 -54 257 -82 368 -154 610 -417 1196 -777 1732 -55
81 -201 283 -240 331 -279 343 -515 587 -803 829 -97 82 -98 83 -226 180 -62
47 -117 89 -123 93 -93 71 -420 276 -579 362 -430 233 -930 425 -1366 525
-130 30 -235 52 -285 60 -16 3 -52 10 -80 15 -27 5 -72 12 -100 15 -27 4 -57
8 -65 10 -8 2 -41 7 -73 10 -32 4 -66 8 -76 10 -9 2 -55 6 -102 10 -46 3 -102
9 -124 11 -45 5 -672 14 -677 9z"/>
</g>
</svg>
